<svg xmlns="http://www.w3.org/2000/svg" width="93" height="32" viewBox="0 0 93 32" fill="none"><g clip-path="url(#clip0_130_2317)"><path d="M49.8376 7.90865C47.6577 7.90865 45.8833 6.13523 45.8833 3.95433C45.8833 1.77342 47.6577 0 49.8376 0C52.0176 0 53.792 1.77342 53.792 3.95433C53.792 6.13523 52.0185 7.90865 49.8376 7.90865ZM49.8376 2.41334C48.9882 2.41334 48.2966 3.10492 48.2966 3.95433C48.2966 4.80373 48.9882 5.49531 49.8376 5.49531C50.687 5.49531 51.3786 4.80373 51.3786 3.95433C51.3786 3.10492 50.687 2.41334 49.8376 2.41334Z" fill="#3CE25F"></path><path d="M6.45186 22.7866C5.61968 22.7866 4.8181 22.69 4.04713 22.4977C3.27616 22.3045 2.5865 22.0204 1.97814 21.6435C1.36882 21.2666 0.887687 20.796 0.532811 20.2307C0.177936 19.6654 0.000976562 19.0063 0.000976562 18.2535V18.0173H4.04713V18.2009C4.04713 18.7089 4.27287 19.081 4.7234 19.3182C5.17489 19.5544 5.78516 19.673 6.55613 19.673C6.95883 19.673 7.34623 19.6319 7.71928 19.5477C8.09137 19.4645 8.39842 19.3287 8.63947 19.1403C8.88051 18.9518 9.00104 18.7136 9.00104 18.4238C9.00104 17.9599 8.74468 17.6308 8.23198 17.4386C7.71928 17.2454 6.89857 17.0531 5.76794 16.8599C5.12802 16.7547 4.48044 16.6064 3.8233 16.4132C3.16616 16.2209 2.56163 15.9646 2.00971 15.6441C1.45778 15.3246 1.01586 14.9171 0.682988 14.4226C0.350113 13.9281 0.183675 13.3255 0.183675 12.6157C0.183675 11.6697 0.470636 10.8729 1.04456 10.2244C1.61848 9.57584 2.38275 9.08609 3.33738 8.75322C4.292 8.42034 5.34324 8.25391 6.49108 8.25391C7.63893 8.25391 8.60694 8.43565 9.55296 8.79913C10.499 9.16262 11.2652 9.68393 11.8525 10.3621C12.4388 11.0413 12.7325 11.8581 12.7325 12.8128V12.9964H8.7246V12.8386C8.7246 12.4885 8.61268 12.2034 8.38981 11.9844C8.16694 11.7654 7.8838 11.6008 7.54232 11.4918C7.20083 11.3827 6.84596 11.3273 6.47769 11.3273C6.14482 11.3273 5.80142 11.3646 5.44654 11.4392C5.09167 11.5138 4.79132 11.6362 4.54644 11.8074C4.30157 11.9787 4.17818 12.2168 4.17818 12.5239C4.17818 12.8309 4.30922 13.0643 4.57227 13.2528C4.83532 13.4412 5.20263 13.5943 5.67611 13.7129C6.14864 13.8305 6.69674 13.9424 7.31849 14.0477C7.90484 14.1443 8.52468 14.2772 9.178 14.4484C9.83035 14.6197 10.4435 14.8598 11.0174 15.1706C11.5913 15.4815 12.0553 15.889 12.4101 16.3921C12.765 16.8962 12.942 17.5333 12.942 18.3042C12.942 19.0752 12.7583 19.785 12.39 20.3541C12.0218 20.9232 11.5253 21.3852 10.8988 21.7401C10.2723 22.095 9.57592 22.358 8.80973 22.5283C8.04354 22.6995 7.25727 22.7847 6.45091 22.7847L6.45186 22.7866Z" fill="#212338"></path><path d="M16.7527 22.471L13.9673 8.51707H18.1722L19.9983 21.3414L19.3411 21.3155L22.2452 8.51803H25.2143L22.3236 22.472H16.7527V22.471ZM26.4501 22.471L23.5327 8.51707H26.5027L29.4326 21.3146L28.762 21.3404L30.5881 8.51611H34.793L32.0076 22.4701H26.4501V22.471Z" fill="#212338"></path><path d="M43.6229 22.773C42.1163 22.773 40.7887 22.4621 39.6418 21.8404C38.4939 21.2186 37.5986 20.3625 36.9549 19.2711C36.3111 18.1806 35.9888 16.9218 35.9888 15.4937C35.9888 14.0656 36.3111 12.8202 36.9549 11.7298C37.5986 10.6393 38.4939 9.7899 39.6418 9.18058C40.7896 8.57223 42.1163 8.26709 43.6229 8.26709C45.1294 8.26709 46.4562 8.57127 47.604 9.18058C48.7519 9.7899 49.6472 10.6393 50.2909 11.7298C50.9347 12.8202 51.257 14.0752 51.257 15.4937C51.257 16.9123 50.9347 18.1806 50.2909 19.2711C49.6472 20.3615 48.7519 21.2176 47.604 21.8404C46.4562 22.4621 45.1294 22.773 43.6229 22.773ZM43.6229 19.5408C44.3326 19.5408 44.9496 19.3744 45.4757 19.0415C46.0008 18.7087 46.4083 18.238 46.6972 17.6287C46.9861 17.0204 47.1305 16.3087 47.1305 15.4937C47.1305 14.6788 46.9861 13.9719 46.6972 13.3721C46.4083 12.7724 46.0008 12.3104 45.4757 11.9861C44.9506 11.6618 44.3326 11.5002 43.6229 11.5002C42.9131 11.5002 42.3067 11.6628 41.7768 11.9861C41.2469 12.3104 40.8375 12.7724 40.5486 13.3721C40.2597 13.9719 40.1153 14.6797 40.1153 15.4937C40.1153 16.3077 40.2597 17.0204 40.5486 17.6287C40.8375 18.238 41.2469 18.7087 41.7768 19.0415C42.3067 19.3744 42.9218 19.5408 43.6229 19.5408Z" fill="#3CE25F"></path><path d="M53.7929 22.4709V8.51697H57.8793V13.3264L57.0385 12.8013C57.1351 12.1442 57.3101 11.5396 57.5646 10.9877C57.8181 10.4358 58.1471 9.95656 58.5498 9.54908C58.9525 9.14159 59.4317 8.82402 59.9884 8.59637C60.5442 8.36871 61.1822 8.25488 61.9006 8.25488C62.4611 8.25488 62.9011 8.29697 63.2206 8.38019C63.5401 8.46341 63.74 8.52654 63.8184 8.57054L63.1479 12.2236C63.0694 12.1796 62.8934 12.1097 62.6218 12.0131C62.3501 11.9165 62 11.8687 61.5706 11.8687C60.8694 11.8687 60.2831 11.9873 59.8096 12.2236C59.337 12.4598 58.9573 12.7736 58.6732 13.1629C58.3882 13.5531 58.1844 13.9836 58.062 14.4571C57.9395 14.9296 57.8783 15.4079 57.8783 15.889V22.4719H53.792L53.7929 22.4709Z" fill="#212338"></path><path d="M65.8804 22.4709V1.93408H69.7438V13.6938L68.9422 13.2729L74.2635 8.51601H79.2566L72.3456 14.6914L73.2132 13.1409L79.1389 22.47H74.8556L70.5454 15.2826L71.5832 15.362L69.3229 17.4118L69.7438 15.6642V22.47H65.8804V22.4709Z" fill="#212338"></path><path d="M85.2158 19.2781H92.7839V22.4711H80.853V19.4494L88.2375 11.5522L88.3293 11.6966H81.1161V8.51709H92.6261V11.5388L85.3076 19.4092L85.2158 19.2781Z" fill="#212338"></path><path d="M54.0546 32H49.58C48.3852 29.9377 46.1536 28.5479 43.6045 28.5479C41.0553 28.5479 38.8237 29.9377 37.629 32H33.1543C34.6035 27.6172 38.7414 24.4453 43.6045 24.4453C48.4675 24.4453 52.6055 27.6172 54.0546 32Z" fill="#3CE25F"></path></g><defs><clipPath id="clip0_130_2317"><rect width="92.7841" height="32" fill="white"></rect></clipPath></defs></svg>